<mxfile host="app.diagrams.net" modified="2025-02-10T00:00:00.000Z" agent="Python Script" version="15.7.7"><diagram id="diagramId" name="Page-1"><mxGraphModel dx="1264" dy="684" grid="1" gridSize="10" guides="1" tooltips="1" connect="1" arrows="1" fold="1" page="1" pageScale="1" pageWidth="850" pageHeight="1100" math="0"><root><mxCell id="0" /><mxCell id="1" parent="0" /><mxCell id="2" value="Start" style="ellipse;whiteSpace=wrap;html=1;aspect=fixed;fillColor=#000000;fontColor=#ffffff;" vertex="1" parent="1"><mxGeometry x="80.0" y="60" width="40" height="40" as="geometry" /></mxCell><mxCell id="3" value="Das ist eine Aktion" style="rounded=1;whiteSpace=wrap;html=1;strokeColor=none;fillColor=#DCE9F1;" vertex="1" parent="1"><mxGeometry x="40.0" y="160" width="120" height="40" as="geometry" /></mxCell><mxCell id="4" value="Und das ist eine andere Aktion" style="rounded=1;whiteSpace=wrap;html=1;strokeColor=none;fillColor=#DCE9F1;" vertex="1" parent="1"><mxGeometry x="40.0" y="260" width="120" height="40" as="geometry" /></mxCell><mxCell id="5" value="Aktion3" style="rounded=1;whiteSpace=wrap;html=1;strokeColor=none;fillColor=#DCE9F1;" vertex="1" parent="1"><mxGeometry x="40.0" y="360" width="120" height="40" as="geometry" /></mxCell><mxCell id="6" value="Aktion4" style="rounded=1;whiteSpace=wrap;html=1;strokeColor=none;fillColor=#DCE9F1;" vertex="1" parent="1"><mxGeometry x="40.0" y="460" width="120" height="40" as="geometry" /></mxCell><mxCell id="7" value="Stop" style="ellipse;whiteSpace=wrap;html=1;aspect=fixed;fillColor=#000000;fontColor=#ffffff;" vertex="1" parent="1"><mxGeometry x="80.0" y="660" width="40" height="40" as="geometry" /></mxCell><mxCell id="e1" value="" edge="1" source="2" target="3" parent="1" style="edgeStyle=elbowEdgeStyle;elbow=vertical;strokeWidth=1.5;"><mxGeometry relative="1" as="geometry" /></mxCell><mxCell id="e2" value="" edge="1" source="3" target="4" parent="1" style="edgeStyle=elbowEdgeStyle;elbow=vertical;strokeWidth=1.5;"><mxGeometry relative="1" as="geometry" /></mxCell><mxCell id="e3" value="" edge="1" source="4" target="5" parent="1" style="edgeStyle=elbowEdgeStyle;elbow=vertical;strokeWidth=1.5;"><mxGeometry relative="1" as="geometry" /></mxCell><mxCell id="e4" value="" edge="1" source="5" target="6" parent="1" style="edgeStyle=elbowEdgeStyle;elbow=vertical;strokeWidth=1.5;"><mxGeometry relative="1" as="geometry" /></mxCell><mxCell id="e5" value="" edge="1" source="6" target="7" parent="1" style="edgeStyle=elbowEdgeStyle;elbow=vertical;strokeWidth=1.5;"><mxGeometry relative="1" as="geometry" /></mxCell></root></mxGraphModel></diagram></mxfile>